<?xml
version="1.0" encoding="UTF-8"?>
<svg width="289px" height="40px" viewBox="0 0 289 40" version="1.1" xmlns="http://www.w3.org/2000/svg" xmlns:xlink="http://www.w3.org/1999/xlink">
    <title>ICICI logo</title>
    <g id="Final" stroke="none" stroke-width="1" fill="none" fill-rule="evenodd">
        <g id="Home-page_NoN_customer-_02-_01" transform="translate(-118, -82)">
            <g id="Group-9" transform="translate(0, 48)">
                <g id="ICICI-logo" transform="translate(118, 34)">
                    <g id="Group" transform="translate(36.7231, 11.5119)" fill-rule="nonzero">
                        <g transform="translate(119.8538, 0.8047)" fill="#DB620A">
                            <path d="M0,27.0931851 L7.24273266,0 L20.8698,0 C25.5909887,0 28.9709306,0.69744833 30.9559759,1.98504525 C34.3895677,4.29198972 35.3552653,8.20843035 33.8530689,13.8416669 C32.4045224,19.206654 29.4537795,23.0157949 24.9471903,25.2154396 C23.2840442,26.0201877 21.3526489,26.5566864 19.206654,26.8249358 C17.9190571,26.9858854 16.0413116,27.0395353 13.5734175,27.0395353 L0,27.0931851 Z M18.1873065,6.00878561 L13.2515183,6.00878561 L9.17412803,21.2453491 L14.1099162,21.2453491 C17.2216088,21.2453491 19.6895029,20.7625003 21.4599486,19.8504525 C23.7132432,18.6701553 25.2690895,16.6314602 26.0201877,13.7343671 C27.3614345,8.58397945 24.7862407,6.00878561 18.1873065,6.00878561 Z" id="Shape"></path>
                            <path d="M33.3165702,27.146835 L38.3596582,8.26208022 L45.5487409,8.26208022 L40.505653,27.146835 L33.3165702,27.146835 Z M38.842507,5.36498715 L40.2910535,0.0536498715 L48.0702849,0.0536498715 L46.6753882,5.36498715 L38.842507,5.36498715 Z" id="Shape"></path>
                            <path d="M62.9312993,14.2708658 C62.1802011,14.1635661 61.4827528,14.1099162 60.7316546,14.1099162 C56.9225137,14.1099162 54.4009697,16.2559111 53.2206726,20.6015507 L51.4502268,27.146835 L44.261144,27.146835 L48.1239348,12.7150196 C48.6067836,10.9982237 48.9286828,9.49602726 49.0896325,8.26208022 L56.1177656,8.26208022 C56.0104659,9.12047816 55.7958664,10.0861759 55.4739672,11.1055234 L55.2593677,11.9639214 C57.4053626,9.33507765 60.2488057,7.99383086 63.7896973,8.04748073 L64.5407955,8.04748073 L62.9312993,14.2708658 Z" id="Path"></path>
                            <path d="M85.195996,21.1380494 C83.6937996,25.483689 79.34816,27.6296838 72.266377,27.6296838 C68.7791353,27.6296838 66.1502916,26.9322355 64.4871456,25.5373389 C62.5557502,23.8741928 62.0192515,21.4062987 62.8776494,18.0263568 C63.8433471,14.5391152 65.7210926,11.8566216 68.6181857,10.1398257 C71.1933795,8.58397945 74.3050721,7.77923137 77.9532634,7.77923137 C85.4105955,7.77923137 88.1467389,11.4274226 86.2153436,18.7238052 L86.054394,19.3676036 L69.744833,19.3676036 C69.4229338,20.7625003 69.6375333,21.8354977 70.3349816,22.6402458 C71.0324299,23.391344 72.1054274,23.7668931 73.500324,23.7668931 C75.9145682,23.7668931 77.4704145,22.9084951 78.114213,21.1916993 L85.195996,21.1380494 Z M70.7641806,15.5048129 L79.9919585,15.5048129 C80.3138577,14.2708658 80.0992582,13.3051681 79.4018099,12.6077198 C78.7580114,12.0175712 77.7923137,11.695672 76.5047168,11.695672 C73.5539739,11.695672 71.6762284,12.9832689 70.7641806,15.5048129 Z" id="Shape"></path>
                            <path d="M104.831849,14.9683142 C105.046448,12.929619 103.973451,11.9102715 101.505557,11.8566216 C99.8424109,11.8566216 98.5011642,12.5004201 97.320867,13.7343671 C96.3551693,14.8073645 95.657721,16.2022612 95.1748721,17.9190571 C94.2091744,21.5135985 95.2821719,23.2840442 98.3938644,23.2840442 C101.130008,23.2840442 102.846804,22.1037471 103.544252,19.7968026 L110.947934,19.7968026 C109.284788,25.0008401 104.670899,27.576034 97.1599174,27.576034 C93.6190258,27.576034 90.9901821,26.8785856 89.3270361,25.483689 C87.3419909,23.8741928 86.8054922,21.3526489 87.71754,17.972707 C88.6295878,14.4854653 90.5609832,11.8566216 93.4580762,10.0861759 C96.0332701,8.53032958 99.1449626,7.7255815 102.793154,7.7255815 C109.713987,7.7255815 112.82568,10.1398257 112.020932,14.9146643 L104.831849,14.9683142 Z" id="Path"></path>
                            <path d="M127.364795,1.71679589 L125.594349,8.36937996 L131.495835,8.36937996 L130.315538,12.8223193 L124.414052,12.8223193 L122.429007,20.1723517 C122.160758,21.1916993 122.214407,21.8891476 122.589956,22.2646967 C122.911856,22.5865959 123.609304,22.7475455 124.682301,22.7475455 C125.37975,22.7475455 126.399097,22.6938957 127.686694,22.5865959 L126.452747,27.2004849 C124.789601,27.5223841 123.180105,27.6833337 121.677909,27.6833337 C116.151972,27.6833337 113.952327,25.6982885 115.025325,21.6745481 L117.385919,12.8223193 L113.040279,12.8223193 L114.220577,8.36937996 L118.566216,8.36937996 L119.639214,4.34563959 L123.770254,3.11169255 C124.896901,2.78979332 126.077198,2.30694448 127.364795,1.71679589 Z" id="Path"></path>
                        </g>
                        <g fill="#053C6D" id="Path">
                            <path d="M17.7581075,24.4643414 C20.065052,26.8249358 23.7668931,28.0052329 29.0245805,28.0052329 C34.4432175,28.0052329 38.7352073,27.146835 41.9005497,25.483689 C45.0658921,23.7668931 47.3191867,21.1916993 48.6067836,17.6508077 L38.6815574,17.6508077 C37.9841091,19.206654 37.0184114,20.4406011 35.7844643,21.2453491 C34.4968674,22.0500972 32.994671,22.4792962 31.2242252,22.4792962 C28.809981,22.4792962 27.146835,21.7818478 26.2347872,20.3333013 C25.3227394,18.9384047 25.2154396,16.8997095 25.912888,14.217216 C26.6639862,11.4810725 27.8442833,9.33507765 29.5610792,7.88653112 C31.2778751,6.38433471 33.3702201,5.63323651 35.7844643,5.63323651 C37.2866607,5.63323651 38.413308,5.95513574 39.1644062,6.5989342 C39.8618546,7.24273266 40.1837538,8.26208022 40.076454,9.54967713 L50.0016803,9.54967713 C50.6454787,6.38433471 49.8943805,4.02374037 47.7483857,2.41424422 C45.6023908,0.804748073 42.1151492,0 37.2866607,0 C31.7070741,0 27.0931851,1.23394705 23.391344,3.75549101 C19.6895029,6.27703497 17.2216088,9.87157636 15.9876617,14.4854653 C14.9146643,18.777455 15.5048129,22.1037471 17.7581075,24.4643414 Z"></path>
                            <polygon points="9.60332701 27.8979332 16.8460597 0.858397945 7.24273266 0.858397945 0 27.8979332"></polygon>
                            <path d="M66.3112412,24.4643414 C68.6181857,26.8249358 72.3200268,28.0052329 77.5777143,28.0052329 C82.9963513,28.0052329 87.288341,27.146835 90.4536834,25.483689 C93.6190258,23.7668931 95.8723204,21.1916993 97.1599174,17.6508077 L87.2346911,17.6508077 C86.5372428,19.206654 85.5715451,20.4406011 84.3375981,21.2453491 C83.0500011,22.0500972 81.5478047,22.4792962 79.777359,22.4792962 C77.3631148,22.4792962 75.6999687,21.7818478 74.7879209,20.3333013 C73.8758731,18.9384047 73.7685734,16.8997095 74.4660217,14.217216 C75.2171199,11.4810725 76.4510669,9.33507765 78.114213,7.88653112 C79.8310089,6.38433471 81.9233538,5.63323651 84.3375981,5.63323651 C85.8397945,5.63323651 86.9664418,5.95513574 87.71754,6.5989342 C88.4149883,7.24273266 88.7368875,8.26208022 88.6295878,9.54967713 L98.554814,9.54967713 C99.1986125,6.38433471 98.4475143,4.02374037 96.3015194,2.41424422 C94.1555246,0.804748073 90.6682829,0 85.8397945,0 C80.2602078,0 75.6463189,1.23394705 71.9444777,3.75549101 C68.2426366,6.27703497 65.7747425,9.87157636 64.5407955,14.4854653 C63.467798,18.777455 64.0042968,22.1037471 66.3112412,24.4643414 Z"></path>
                            <polygon points="106.655945 27.8979332 113.898677 0.858397945 104.29535 0.858397945 97.0526176 27.8979332"></polygon>
                            <polygon points="58.1028109 27.8979332 65.3991934 0.858397945 55.7958664 0.858397945 48.4994839 27.8979332"></polygon>
                        </g>
                    </g>
                    <g id="Group">
                        <path d="M10.4346419,8.56117528 C16.228828,3.08888838 22.5595129,0.0308457005 27.7635504,0.0308457005 C30.7142933,0.0308457005 33.3967869,1.10384313 35.0062831,3.41078761 C39.4592224,9.63417271 35.5964317,22.027293 26.4223036,31.0941213 C24.6518579,32.8645671 22.8814121,34.2594637 20.9500167,35.5470607 C18.750372,36.7810077 14.4583823,40.1609496 8.07404756,39.6244509 C5.39155398,39.4635013 3.35285886,38.2295542 1.85066246,36.244509 C-2.60227688,30.0211239 1.26051387,17.5743537 10.4346419,8.56117528" id="Path" fill="#FFFFFF"></path>
                        <path d="M27.4416512,3.57173722 C28.4609987,4.64473465 27.8708502,6.95167913 25.9394548,8.72212489 C24.169009,10.4925707 21.8084147,11.190019 20.7890671,10.1170216 C19.7697196,9.04402412 20.3598681,6.73707964 22.1303139,4.96663388 C24.0080594,3.03523851 26.3686538,2.49873979 27.4416512,3.57173722 M10.4346419,8.56117528 C1.26051387,17.6280036 -2.60227688,30.0211239 1.85066246,36.244509 C3.35285886,38.1759044 5.39155398,39.4635013 8.07404756,39.6244509 C9.84449332,39.7854005 11.3466897,37.6930555 12.5269869,35.0105619 C13.7072841,32.3280684 14.4583823,29.6992247 15.0485309,27.3922802 C15.9069288,23.6904391 15.9069288,20.8469959 15.4777298,20.3104971 C14.7266316,19.3984493 13.1171355,19.6130488 11.1857401,20.6860462 C10.3273422,21.222545 9.09339512,20.8469959 10.5955915,19.0765501 C11.9368383,17.467054 17.6773746,13.2287141 19.6087699,12.6922154 C21.9693643,11.9947671 24.4909082,12.853165 23.5788604,15.374709 C22.9887118,17.1451547 15.1558306,37.7467054 20.8963669,35.6007105 C22.8277622,34.3667635 24.598208,32.918217 26.3686538,31.1477712 C35.5427818,22.0809429 39.3519227,9.68782258 34.9526332,3.46443748 C33.3431371,1.157493 30.6606435,0.0844955721 27.7099005,0.0844955721 C22.5595129,0.0308457005 16.1751782,3.03523851 10.4346419,8.56117528 Z" id="Shape" fill="#DB620A"></path>
                        <path d="M27.4416512,3.57173722 C28.4609987,4.64473465 27.8708502,6.95167913 25.9394548,8.72212489 C24.169009,10.4925707 21.8084147,11.190019 20.7890671,10.1170216 C19.7697196,9.04402412 20.3598681,6.73707964 22.1303139,4.96663388 C24.0080594,3.03523851 26.3686538,2.49873979 27.4416512,3.57173722 M16.4970774,3.78633671 C15.4777298,4.69838452 14.4047324,5.39583285 13.3853848,6.46883029 C5.39155398,14.2480617 2.17256169,25.0853357 6.14265218,30.6112725 C7.64484859,32.7572673 10.1663925,33.6156653 13.1171355,33.6156653 C14.0291833,31.3087208 14.565682,29.3773254 15.0485309,27.3922802 C15.9069288,23.6904391 15.9069288,20.8469959 15.4777298,20.3104971 C14.7266316,19.3984493 13.1171355,19.6130488 11.1857401,20.6860462 C10.3273422,21.222545 9.09339512,20.8469959 10.5955915,19.0765501 C11.9368383,17.467054 17.6773746,13.2287141 19.6087699,12.6922154 C21.9693643,11.9947671 24.4909082,12.853165 23.5788604,15.374709 C23.1496615,16.608656 19.2868707,26.7484817 18.8576717,32.2207686 C21.9693643,30.9868216 25.0810568,28.8408267 28.0317998,25.9973835 C32.4847391,21.7590437 35.435482,16.7696056 36.6157792,12.1557167 C37.0449782,8.77577476 36.4548296,5.77138196 35.0062831,3.46443748 C31.4117417,-1.36405096 24.0080594,-1.04215173 16.4970774,3.78633671 Z" id="Shape" fill="#97291E"></path>
                    </g>
                </g>
            </g>
        </g>
    </g>
</svg>