<svg width="16" height="17" viewBox="0 0 16 17" fill="none" xmlns="http://www.w3.org/2000/svg">
<path fill-rule="evenodd" clip-rule="evenodd" d="M10.7224 12.2101C11.2238 11.5722 11.9885 11.1977 12.7997 11.1927L12.7996 11.1927C13.5059 11.1927 14.1833 11.4733 14.6827 11.9727C15.1822 12.4722 15.4628 13.1495 15.4628 13.8559C15.4628 14.5622 15.1822 15.2395 14.6827 15.739C14.1833 16.2385 13.5059 16.519 12.7996 16.519C12.0933 16.519 11.4159 16.2384 10.9165 15.739C10.417 15.2395 10.1364 14.5622 10.1364 13.8559C10.1401 13.6216 10.1742 13.389 10.2376 13.1634L4.75689 10.1753C4.29772 10.7595 3.61525 11.1252 2.87457 11.1842C2.1339 11.2432 1.40224 10.99 0.85627 10.486C0.310422 9.98186 0 9.27254 0 8.52947C0 7.78639 0.310422 7.07707 0.85627 6.57298C1.40221 6.06889 2.13387 5.81578 2.87457 5.87473C3.61528 5.93369 4.29772 6.29941 4.75689 6.88364L10.2431 3.90087C10.1749 3.67436 10.139 3.43956 10.1365 3.20308C10.1299 2.35692 10.5259 1.55784 11.2032 1.05064C11.8806 0.543337 12.7587 0.388184 13.5689 0.632507C14.379 0.876973 15.0248 1.49188 15.3086 2.28916C15.5924 3.08636 15.4804 3.97102 15.007 4.67237C14.5334 5.37372 13.7548 5.8084 12.9094 5.84323C12.0638 5.87805 11.252 5.50904 10.7224 4.84893L5.24173 7.83707C5.3051 8.0626 5.33923 8.29528 5.34291 8.5295C5.33923 8.76371 5.3051 8.99639 5.24173 9.22193L10.7224 12.2101ZM13.9297 2.07316C13.6299 1.77355 13.2236 1.6052 12.7997 1.6052C12.3759 1.6052 11.9695 1.77355 11.6698 2.07316C11.3702 2.3729 11.2018 2.77925 11.2018 3.20311C11.2018 3.62697 11.3702 4.03334 11.6698 4.33307C11.9695 4.63268 12.3759 4.80103 12.7997 4.80103C13.2236 4.80103 13.6299 4.63268 13.9297 4.33307C14.2293 4.03333 14.3976 3.62697 14.3976 3.20311C14.3976 2.77925 14.2293 2.37289 13.9297 2.07316ZM2.67959 10.1274C2.25573 10.1274 1.84938 9.95906 1.54964 9.65945C1.25003 9.35972 1.08168 8.95335 1.08168 8.5295C1.08168 8.10564 1.25003 7.69928 1.54964 7.39954C1.84937 7.09993 2.25573 6.93158 2.67959 6.93158C3.10345 6.93158 3.50981 7.09993 3.80955 7.39954C4.10916 7.69927 4.27751 8.10564 4.27751 8.5295C4.27751 8.95335 4.10916 9.35971 3.80955 9.65945C3.50982 9.95906 3.10345 10.1274 2.67959 10.1274ZM11.6698 14.9858C11.9695 15.2854 12.3759 15.4538 12.7997 15.4538C13.2236 15.4538 13.6299 15.2854 13.9297 14.9858C14.2293 14.6861 14.3976 14.2797 14.3976 13.8559C14.3976 13.432 14.2293 13.0257 13.9297 12.7259C13.6299 12.4263 13.2236 12.258 12.7997 12.258C12.3759 12.258 11.9695 12.4263 11.6698 12.7259C11.3702 13.0257 11.2018 13.432 11.2018 13.8559C11.2018 14.2797 11.3702 14.6861 11.6698 14.9858Z" fill="#E87817"/>
</svg>
