<svg width="10" height="10" viewBox="0 0 10 10" fill="none" xmlns="http://www.w3.org/2000/svg">
<mask id="path-1-inside-1_1_3236" fill="white">
<path fill-rule="evenodd" clip-rule="evenodd" d="M7.50194 0.669863C8.26715 1.11649 8.87301 1.72235 9.31966 2.48754C9.7661 3.25273 9.98936 4.0885 9.98934 4.99469C9.98934 5.9008 9.7661 6.73651 9.31957 7.5018C8.87296 8.26699 8.26713 8.87301 7.50191 9.31952C6.73665 9.7661 5.90089 9.98938 4.99474 9.98938C4.08859 9.98938 3.25292 9.7661 2.48761 9.31952C1.72235 8.87285 1.11649 8.26699 0.669863 7.5018C0.223326 6.73645 0 5.90084 0 4.99469C0 4.08859 0.223257 3.25285 0.669932 2.48754C1.11658 1.72228 1.72244 1.11642 2.4877 0.669863C3.25292 0.223257 4.08866 0 4.99483 0C5.90109 0 6.73658 0.223257 7.50194 0.669863ZM6.77027 8.0579C7.31221 7.74141 7.74141 7.31205 8.0579 6.77011C8.37442 6.22818 8.53257 5.63636 8.53257 4.99469C8.53257 4.35298 8.37442 3.76116 8.0579 3.21923C7.74144 2.67729 7.31221 2.24802 6.77027 1.93153C6.22834 1.61501 5.63651 1.45681 4.99476 1.45681C4.35305 1.45681 3.76123 1.61501 3.21929 1.93153C2.6774 2.248 2.24809 2.67729 1.93166 3.21923C1.61517 3.76116 1.45688 4.35298 1.45688 4.99469C1.45688 5.63636 1.6151 6.22818 1.93166 6.77011C2.24815 7.31205 2.67736 7.74139 3.21929 8.0579C3.7613 8.3744 4.35314 8.53248 4.99476 8.53248C5.63654 8.53248 6.22834 8.3744 6.77027 8.0579Z"/>
</mask>
<path d="M9.31966 2.48754L10.3561 1.88281L10.356 1.8826L9.31966 2.48754ZM7.50194 0.669863L8.10684 -0.366523L8.10673 -0.366583L7.50194 0.669863ZM9.98934 4.99469L8.78934 4.99466V4.99469H9.98934ZM9.31957 7.5018L10.356 8.10669L10.356 8.10657L9.31957 7.5018ZM7.50191 9.31952L6.89713 8.28307L6.89709 8.28309L7.50191 9.31952ZM2.48761 9.31952L1.88269 10.3559L1.88281 10.356L2.48761 9.31952ZM0.669863 7.5018L-0.366623 8.10653L-0.366515 8.10671L0.669863 7.5018ZM0.669932 2.48754L-0.366456 1.88264L-0.366459 1.88265L0.669932 2.48754ZM2.4877 0.669863L3.0925 1.70631L3.09258 1.70626L2.4877 0.669863ZM8.0579 6.77011L7.02169 6.16492L7.02167 6.16495L8.0579 6.77011ZM6.77027 8.0579L6.16511 7.02167L6.16511 7.02167L6.77027 8.0579ZM8.0579 3.21923L7.02165 3.82436L7.02169 3.82442L8.0579 3.21923ZM6.77027 1.93153L6.16508 2.96774L6.16511 2.96776L6.77027 1.93153ZM3.21929 1.93153L3.82446 2.96776L3.82449 2.96774L3.21929 1.93153ZM1.93166 3.21923L2.9679 3.82439L2.96795 3.82429L1.93166 3.21923ZM1.93166 6.77011L2.9679 6.16495L2.96784 6.16485L1.93166 6.77011ZM3.21929 8.0579L2.6141 9.09412L2.61419 9.09417L3.21929 8.0579ZM10.356 1.8826C9.80513 0.938831 9.05066 0.184351 8.10684 -0.366523L6.89704 1.70625C7.48365 2.04863 7.94088 2.50586 8.28329 3.09248L10.356 1.8826ZM11.1893 4.99472C11.1894 3.88109 10.9122 2.83589 10.3561 1.88281L8.28317 3.09227C8.62 3.66958 8.78936 4.2959 8.78934 4.99466L11.1893 4.99472ZM10.356 8.10657C10.9122 7.15339 11.1893 6.10823 11.1893 4.99469H8.78934C8.78934 5.69337 8.62001 6.31964 8.2831 6.89703L10.356 8.10657ZM8.1067 10.356C9.05072 9.80512 9.80517 9.05039 10.356 8.10669L8.28318 6.89691C7.94075 7.4836 7.48354 7.94089 6.89713 8.28307L8.1067 10.356ZM4.99474 11.1894C6.10834 11.1894 7.15357 10.9122 8.10674 10.356L6.89709 8.28309C6.31973 8.62002 5.69344 8.78938 4.99474 8.78938V11.1894ZM1.88281 10.356C2.83598 10.9122 3.88111 11.1894 4.99474 11.1894V8.78938C4.29607 8.78938 3.66985 8.62003 3.09241 8.28308L1.88281 10.356ZM-0.366515 8.10671C0.184362 9.05051 0.938845 9.80499 1.88269 10.3559L3.09253 8.28315C2.50585 7.94071 2.04862 7.48348 1.70624 6.89689L-0.366515 8.10671ZM-1.2 4.99469C-1.2 6.10839 -0.922716 7.1534 -0.366623 8.10653L1.70635 6.89707C1.36937 6.31949 1.2 5.6933 1.2 4.99469H-1.2ZM-0.366459 1.88265C-0.922827 2.8359 -1.2 3.88113 -1.2 4.99469H1.2C1.2 4.29604 1.36934 3.6698 1.70632 3.09243L-0.366459 1.88265ZM1.8829 -0.366579C0.938947 0.184252 0.184438 0.938778 -0.366456 1.88264L1.70632 3.09244C2.04873 2.50578 2.50593 2.0486 3.0925 1.70631L1.8829 -0.366579ZM4.99483 -1.2C3.88123 -1.2 2.83599 -0.922839 1.88282 -0.366536L3.09258 1.70626C3.66984 1.36935 4.29609 1.2 4.99483 1.2V-1.2ZM8.10673 -0.366583C7.15353 -0.922806 6.10859 -1.2 4.99483 -1.2V1.2C5.69359 1.2 6.31964 1.36932 6.89714 1.70631L8.10673 -0.366583ZM7.02167 6.16495C6.80929 6.52862 6.52851 6.80944 6.16511 7.02167L7.37544 9.09414C8.09591 8.67338 8.67354 8.09548 9.09414 7.37528L7.02167 6.16495ZM7.33257 4.99469C7.33257 5.42882 7.22838 5.81103 7.02169 6.16492L9.09412 7.37531C9.52046 6.64533 9.73257 5.84389 9.73257 4.99469H7.33257ZM7.02169 3.82442C7.22838 4.17831 7.33257 4.56051 7.33257 4.99469H9.73257C9.73257 4.14545 9.52046 3.34402 9.09412 2.61403L7.02169 3.82442ZM6.16511 2.96776C6.52861 3.18004 6.80936 3.46081 7.02165 3.82436L9.09416 2.6141C8.67351 1.89377 8.09581 1.31599 7.37544 0.895293L6.16511 2.96776ZM4.99476 2.65681C5.42893 2.65681 5.81115 2.76103 6.16508 2.96774L7.37547 0.895312C6.64553 0.468994 5.8441 0.256811 4.99476 0.256811V2.65681ZM3.82449 2.96774C4.17843 2.76103 4.56064 2.65681 4.99476 2.65681V0.256811C4.14546 0.256811 3.34403 0.468998 2.6141 0.895312L3.82449 2.96774ZM2.96795 3.82429C3.18016 3.46085 3.46095 3.18005 3.82446 2.96776L2.61413 0.895296C1.89385 1.31594 1.31602 1.89373 0.895373 2.61416L2.96795 3.82429ZM2.65688 4.99469C2.65688 4.56069 2.76113 4.17844 2.9679 3.82439L0.89543 2.61406C0.469215 3.34388 0.256879 4.14527 0.256879 4.99469H2.65688ZM2.96784 6.16485C2.7611 5.81092 2.65688 5.42872 2.65688 4.99469H0.256879C0.256879 5.84399 0.46911 6.64544 0.895487 7.37537L2.96784 6.16485ZM3.82449 7.02169C3.46104 6.80942 3.18027 6.5286 2.9679 6.16495L0.89543 7.37528C1.31604 8.0955 1.89367 8.67336 2.6141 9.09412L3.82449 7.02169ZM4.99476 7.33248C4.5606 7.33248 4.17834 7.22832 3.8244 7.02164L2.61419 9.09417C3.34425 9.52048 4.14569 9.73248 4.99476 9.73248V7.33248ZM6.16511 7.02167C5.81129 7.22831 5.4291 7.33248 4.99476 7.33248V9.73248C5.84397 9.73248 6.64539 9.52049 7.37544 9.09414L6.16511 7.02167Z" fill="#003E72" mask="url(#path-1-inside-1_1_3236)"/>
<path d="M5.61914 2.49731H5.20287C5.14207 2.49731 5.09232 2.51688 5.05321 2.55586C5.01435 2.59488 4.99478 2.64469 4.99478 2.7054V4.99469H3.538C3.47725 4.99469 3.42745 5.01417 3.38841 5.0531C3.34941 5.0921 3.32991 5.14196 3.32991 5.20278V5.61898C3.32991 5.67971 3.34941 5.72959 3.38841 5.76857C3.42747 5.80754 3.47736 5.82702 3.538 5.82702H5.61925C5.67989 5.82702 5.7298 5.80754 5.7687 5.76857C5.80768 5.72959 5.82731 5.67971 5.82731 5.61898V2.7054C5.82731 2.64474 5.80768 2.59495 5.7687 2.55586C5.72975 2.51688 5.67986 2.49731 5.61914 2.49731Z" fill="#053D6E"/>
</svg>
