<svg width="16" height="23" viewBox="0 0 16 23" fill="none" xmlns="http://www.w3.org/2000/svg">
<path fill-rule="evenodd" clip-rule="evenodd" d="M0.00149105 2.70037C0.00149105 1.50461 0.98694 0.519163 2.1827 0.519163L13.816 0.519043C15.0118 0.519043 15.9972 1.50449 15.9972 2.70025V11.3798C15.9987 11.3959 15.9997 11.4119 16 11.428V21.6041C16.0005 21.7772 15.939 21.9449 15.8267 22.0768C15.7145 22.2086 15.5589 22.2962 15.3878 22.3235C15.2168 22.3509 15.0417 22.3164 14.8938 22.226L7.99662 18.088L1.10068 22.226C0.952994 22.3144 0.778842 22.3475 0.609099 22.3196C0.439355 22.2917 0.285017 22.2044 0.173522 22.0734C0.0620266 21.9424 0.000517273 21.7761 3.04277e-05 21.6041V11.428C-0.000131854 11.4092 0.000354992 11.3902 0.00149105 11.3712V2.70037ZM13.8158 1.9733H2.1827L2.18244 1.97315C1.76713 1.97315 1.45537 2.28491 1.45537 2.70022V11.425C1.45553 11.4421 1.45504 11.4591 1.45391 11.4762V20.3202L7.62569 16.6182C7.73849 16.5505 7.86751 16.515 7.99913 16.515C8.13075 16.515 8.25977 16.5505 8.37256 16.6182L14.5443 20.3202V11.462C14.5435 11.4499 14.543 11.4375 14.5429 11.4252V2.70037C14.5429 2.28507 14.2311 1.9733 13.8158 1.9733Z" fill="#E87817"/>
</svg>
