<svg width="33" height="37" viewBox="0 0 33 37" fill="none" xmlns="http://www.w3.org/2000/svg">
<path fill-rule="evenodd" clip-rule="evenodd" d="M31.111 10.4952C31.111 11.6505 30.2764 12.59 29.251 12.59C28.2259 12.59 27.3913 11.6505 27.3913 10.4952C27.3913 9.33956 28.2259 8.39966 29.251 8.39966C30.2764 8.39966 31.111 9.33956 31.111 10.4952ZM30.2053 10.4952C30.2053 9.90226 29.7773 9.42001 29.251 9.42001C28.7253 9.42001 28.297 9.90228 28.297 10.4952C28.297 11.0874 28.7253 11.5697 29.251 11.5697C29.7773 11.5697 30.2053 11.0874 30.2053 10.4952Z" fill="#D3662D"/>
<path fill-rule="evenodd" clip-rule="evenodd" d="M5.13052 30.4725C5.13052 29.3169 5.96446 28.377 6.98989 28.377C8.01564 28.377 8.8499 29.3169 8.8499 30.4725C8.8499 31.6274 8.01564 32.5677 6.98989 32.5677C5.96446 32.5677 5.13052 31.6274 5.13052 30.4725ZM6.03619 30.4725C6.03619 31.0654 6.4636 31.5473 6.98989 31.5473C7.51618 31.5473 7.94391 31.0654 7.94391 30.4725C7.94391 29.8799 7.51617 29.3973 6.98989 29.3973C6.4636 29.3973 6.03619 29.8799 6.03619 30.4725Z" fill="#D3662D"/>
<path fill-rule="evenodd" clip-rule="evenodd" d="M23.1632 3.81702H20.0067L20.0066 3.81701C19.8414 3.81701 19.6892 3.71487 19.6095 3.55222C19.5296 3.38887 19.5356 3.18992 19.6244 3.03261L21.2027 0.236323C21.2861 0.0893315 21.4301 0 21.5849 0C21.7397 0 21.8837 0.0893342 21.9671 0.236679L23.5454 3.03333C23.6338 3.18992 23.6395 3.38887 23.5599 3.55223C23.4806 3.71487 23.3284 3.81702 23.1632 3.81702ZM22.3384 2.7963L21.585 1.46062L20.8312 2.7963H22.3384Z" fill="#D3662D"/>
<path d="M10.8749 10.5938C11.4922 10.5938 11.8011 10.9066 11.8011 11.5298C11.8011 11.8166 11.7376 12.0647 11.6103 12.2743C11.483 12.4847 11.2881 12.7274 11.0249 13.0036C10.7883 13.2591 10.5959 13.4865 10.4456 13.6862C10.2961 13.8855 10.1688 14.1393 10.0643 14.4457C9.96004 14.7528 9.9076 15.1112 9.9076 15.5198H11.7196C11.7196 15.1418 11.8055 14.8169 11.978 14.5457C12.1508 14.2745 12.4183 13.9546 12.7819 13.5866C13.1996 13.1773 13.5174 12.7937 13.7353 12.4356C13.9536 12.0776 14.0623 11.6274 14.0623 11.085C14.0623 10.2362 13.7985 9.57627 13.2725 9.10541C12.7456 8.63491 12.0235 8.39966 11.1064 8.39966C10.1344 8.39966 9.37184 8.71214 8.81805 9.33537C8.26396 9.95998 7.9825 10.8294 7.97336 11.9441L9.83968 11.9602C9.84884 11.0494 10.1938 10.5939 10.8749 10.5939V10.5938Z" fill="#D3662D"/>
<path d="M11.9375 17.9902C11.9375 17.6015 11.8285 17.2841 11.6106 17.0385C11.3929 16.7933 11.1111 16.6702 10.7662 16.6702C10.4209 16.6702 10.142 16.7933 9.92846 17.0385C9.71492 17.2841 9.60846 17.6016 9.60846 17.9902C9.60846 18.3788 9.71776 18.6988 9.93542 18.9493C10.1534 19.1999 10.4301 19.3255 10.7662 19.3255C11.1112 19.3255 11.3929 19.1999 11.6106 18.9493C11.8285 18.6987 11.9375 18.3788 11.9375 17.9902V17.9902Z" fill="#D3662D"/>
<path d="M26.0817 20.2034H22.953C22.7031 20.2034 22.5003 20.4311 22.5003 20.7134C22.5003 20.9956 22.7031 21.2237 22.953 21.2237H26.0817C26.3316 21.2237 26.5344 20.9956 26.5344 20.7134C26.5344 20.4311 26.3316 20.2034 26.0817 20.2034Z" fill="#D3662D"/>
<path d="M26.0817 24.1611H19.9289C19.6787 24.1611 19.4759 24.3889 19.4759 24.6711C19.4759 24.953 19.6787 25.1815 19.9289 25.1815H26.0817C26.3316 25.1815 26.5344 24.953 26.5344 24.6711C26.5344 24.3889 26.3316 24.1611 26.0817 24.1611Z" fill="#D3662D"/>
<path d="M26.0817 28.1182H25.8384C25.5879 28.1182 25.3854 28.3459 25.3854 28.6282C25.3854 28.9101 25.5879 29.1385 25.8384 29.1385H26.0817C26.3316 29.1385 26.5344 28.9101 26.5344 28.6282C26.5344 28.3459 26.3316 28.1182 26.0817 28.1182Z" fill="#D3662D"/>
<path d="M23.8764 28.1182H17.6989C17.4487 28.1182 17.2459 28.3459 17.2459 28.6282C17.2459 28.9101 17.4487 29.1385 17.6989 29.1385H23.8764C24.1266 29.1385 24.3294 28.9101 24.3294 28.6282C24.3294 28.3459 24.1266 28.1182 23.8764 28.1182Z" fill="#D3662D"/>
<path fill-rule="evenodd" clip-rule="evenodd" d="M31.466 33.8782L30.4251 31.0424C31.9645 28.7234 32.7309 25.8629 32.5868 22.9531C32.2924 16.7682 27.9447 11.7428 22.4748 11.2618C22.229 11.2397 22.0025 11.2301 21.7833 11.2258C20.7121 5.50826 16.2507 1.39771 11.0179 1.39771C10.6982 1.39771 10.4079 1.41052 10.1308 1.43543C4.65979 1.92123 0.312378 6.94691 0.0180111 13.124C-0.0227401 13.917 0.00569136 14.727 0.102989 15.5353C0.35697 17.5874 1.07408 19.5445 2.18038 21.2151L1.13885 24.0567C1.01503 24.3927 1.08357 24.7771 1.3126 25.0358C1.5432 25.2952 1.88595 25.3735 2.18761 25.2326L4.76437 24.0343C6.55775 25.4323 8.64137 26.1775 10.8192 26.2153C10.9174 26.7414 11.0403 27.2738 11.2078 27.8083C11.4188 28.4625 11.6734 29.0889 11.9624 29.6679C12.0345 29.8135 12.1109 29.9644 12.2006 30.1249C12.2783 30.264 12.3564 30.4032 12.4347 30.5302C12.7759 31.1032 13.1524 31.6374 13.5501 32.1115C13.6569 32.2421 13.7631 32.362 13.8603 32.4666C13.9535 32.5766 14.0518 32.6823 14.1529 32.7855C14.5203 33.166 14.9101 33.5176 15.3066 33.8251C15.4061 33.9048 15.5056 33.9803 15.6095 34.0508C15.7078 34.1308 15.8095 34.2038 15.8837 34.2458C15.9981 34.3287 16.1172 34.4084 16.2271 34.4753C16.3522 34.5554 16.4811 34.6309 16.6302 34.7177C16.796 34.8167 16.9666 34.9099 17.1558 34.9992L17.2229 35.0315L17.2234 35.0318C17.3238 35.0801 17.4246 35.1286 17.5286 35.1772C17.7036 35.259 17.8887 35.3359 18.064 35.3978C18.3338 35.5007 18.62 35.5971 18.9084 35.6819C18.9738 35.7025 19.0389 35.7217 19.0746 35.7263C19.3753 35.81 19.6776 35.8737 19.9641 35.9146C20.1196 35.9406 20.2744 35.9651 20.4298 35.9819C20.462 35.9879 20.4945 35.9933 20.5268 35.9954C20.6158 36.0061 20.7043 36.0157 20.7776 36.0196C20.8449 36.0264 20.9106 36.0299 20.951 36.031C21.1696 36.0474 21.3876 36.0523 21.6014 36.0523C21.7471 36.0523 21.893 36.0477 22.0371 36.0417C22.4 36.0242 22.7159 35.9947 22.9964 35.9513C23.0419 35.9452 23.0877 35.9381 23.1329 35.9267C24.8091 35.6651 26.4305 34.9523 27.8404 33.8603L30.4229 35.0601C30.7211 35.1982 31.0617 35.1223 31.291 34.8657C31.521 34.6074 31.5901 34.2212 31.4676 33.8809C31.4673 33.8799 31.4666 33.8788 31.4663 33.8784L31.466 33.8782ZM4.82257 22.9449C4.76413 22.9449 4.70505 22.9577 4.64946 22.9837L2.07269 24.1827L3.11705 21.3337C3.1796 21.1636 3.15559 20.9689 3.05482 20.8237C1.95482 19.2438 1.24438 17.3661 1.00023 15.3966C0.911146 14.6552 0.884928 13.911 0.922837 13.1815C1.1923 7.51094 5.18178 2.89872 10.2027 2.45319C10.4563 2.4297 10.723 2.41831 11.0177 2.41831C15.9388 2.41831 20.1261 6.37343 20.9744 11.8237C20.9744 11.8248 20.9747 11.8262 20.9747 11.8276C21.013 12.0614 21.0442 12.2981 21.0686 12.5369C21.1172 13.0138 21.1381 13.5003 21.1311 13.9915C21.1279 14.2371 21.1175 14.4841 21.1005 14.7314C21.0777 15.0574 21.0401 15.3785 20.9931 15.6963C20.9806 15.7814 20.9644 15.8656 20.9482 15.9496C20.9397 15.9939 20.9312 16.0381 20.9232 16.0824L20.9205 16.0975C20.8889 16.2722 20.8574 16.4465 20.818 16.6181C20.7811 16.7808 20.7379 16.9404 20.6946 17.1L20.6879 17.1249L20.673 17.1789L20.673 17.1791C20.6439 17.2849 20.6149 17.3908 20.583 17.4954C20.523 17.6918 20.4567 17.8851 20.3872 18.0769C20.3571 18.1595 20.3268 18.2417 20.2952 18.3239C20.2109 18.5403 20.1224 18.7538 20.0264 18.9638C20.012 18.9953 19.9971 19.0269 19.9822 19.0586C19.9762 19.0714 19.9701 19.0842 19.9642 19.0969C19.8527 19.3329 19.7367 19.5664 19.6107 19.7934C19.6107 19.7936 19.6106 19.7937 19.6105 19.7938C19.6104 19.7939 19.6104 19.794 19.6104 19.7941C18.7871 21.2807 17.6645 22.5495 16.337 23.4852C16.3222 23.4957 16.3077 23.5063 16.2932 23.5168L16.2932 23.5168C16.2802 23.5263 16.2672 23.5357 16.2542 23.545C16.0675 23.6735 15.8755 23.7934 15.6812 23.9087L15.6539 23.9249C15.6077 23.9523 15.5614 23.9798 15.5147 24.0063C15.3334 24.1088 15.1483 24.2045 14.9612 24.2956C14.8886 24.3301 14.8162 24.3639 14.7433 24.3963C14.5616 24.4785 14.3784 24.5558 14.192 24.6255C14.1136 24.6552 14.0337 24.6822 13.954 24.7091L13.9539 24.7092L13.9466 24.7117C13.7611 24.7757 13.5744 24.8369 13.3843 24.8889C13.3202 24.9062 13.2556 24.921 13.191 24.9358C13.1588 24.9432 13.1265 24.9506 13.0943 24.9583L13.0759 24.9627L13.0758 24.9627C12.9124 25.0022 12.7492 25.0416 12.5854 25.0704C12.3156 25.1185 12.0433 25.1576 11.7669 25.1804L11.7459 25.1814C11.5561 25.1907 11.3666 25.1999 11.1777 25.1999C8.96957 25.2505 6.86727 24.497 5.08846 23.0417C5.01011 22.9777 4.91692 22.9449 4.82278 22.9449L4.82257 22.9449ZM27.5179 32.8684C27.6452 32.7649 27.8114 32.7424 27.9555 32.8104L30.5347 34.0082L29.489 31.1607C29.4265 30.9902 29.4505 30.7959 29.5516 30.6503C31.0631 28.486 31.8203 25.7719 31.6832 23.0095C31.4131 17.333 27.4238 12.7209 22.4042 12.2802C22.2456 12.2653 22.0949 12.2557 21.9499 12.2496C21.9519 12.2676 21.9533 12.2856 21.9548 12.3036C21.9559 12.3177 21.9571 12.3319 21.9584 12.3461C21.9647 12.4031 21.9696 12.4605 21.9745 12.5181C21.9763 12.5391 21.9781 12.5602 21.9799 12.5813C21.9948 12.7454 22.0071 12.9102 22.0156 13.076C22.02 13.1618 22.0242 13.2476 22.027 13.3337C22.0327 13.5021 22.0352 13.6715 22.0346 13.8416C22.0346 13.8649 22.0347 13.8881 22.0347 13.9113C22.0349 13.9654 22.0351 14.0193 22.0343 14.0736C22.0295 14.3185 22.0207 14.5644 22.0033 14.8114C21.979 15.1655 21.9382 15.5154 21.8864 15.8624C21.8722 15.9589 21.854 16.0537 21.8357 16.1485C21.8271 16.1932 21.8185 16.2378 21.8103 16.2827C21.8066 16.3031 21.8029 16.3236 21.7992 16.344C21.7673 16.5196 21.7355 16.6947 21.6959 16.8675C21.6575 17.0381 21.6119 17.2055 21.5662 17.3732C21.5623 17.3876 21.5584 17.4021 21.5544 17.4166C21.5467 17.4445 21.5392 17.4723 21.5316 17.5001C21.5019 17.6089 21.4723 17.7174 21.4391 17.8248C21.3743 18.0366 21.3033 18.2437 21.2284 18.4498C21.194 18.5448 21.1595 18.6391 21.1235 18.7324C21.0341 18.963 20.9397 19.189 20.8383 19.4122C20.8185 19.455 20.7985 19.4974 20.7783 19.5401C20.7714 19.5548 20.7644 19.5696 20.7574 19.5844C20.6405 19.8325 20.5183 20.0759 20.3875 20.314C20.3789 20.3293 20.3698 20.3443 20.3613 20.3596C19.6189 21.6938 18.6598 22.859 17.5384 23.7936C17.5247 23.8051 17.5112 23.8169 17.4978 23.8286C17.4825 23.8421 17.4672 23.8555 17.4515 23.8684C17.2737 24.0136 17.0902 24.1488 16.905 24.2819C16.8821 24.2985 16.8592 24.3151 16.8364 24.3317C16.7835 24.3702 16.7309 24.4085 16.6773 24.4453C16.5117 24.5581 16.3431 24.6631 16.1718 24.7663C16.0679 24.8289 15.9643 24.8909 15.8585 24.95C15.6986 25.0386 15.5372 25.1229 15.3732 25.203C15.251 25.2631 15.1278 25.3197 15.0036 25.3749C14.8447 25.445 14.6849 25.5126 14.5225 25.5749C14.3973 25.6229 14.2703 25.6654 14.1432 25.7079L14.1226 25.7148C13.958 25.7699 13.7947 25.8244 13.6276 25.8703C13.6128 25.8745 13.5983 25.8794 13.5838 25.8844C13.5664 25.8903 13.5489 25.8962 13.5309 25.9009C13.459 25.9201 13.3861 25.935 13.3131 25.95C13.2654 25.9598 13.2177 25.9697 13.1702 25.9806C13.1299 25.9898 13.0898 25.9992 13.0497 26.0086C12.9459 26.033 12.8424 26.0573 12.7371 26.076C12.4322 26.1312 12.1261 26.1735 11.821 26.1985C11.7919 26.1999 11.7635 26.2017 11.735 26.2031C11.82 26.6206 11.9293 27.0423 12.0611 27.4637C12.2541 28.0617 12.4872 28.6368 12.7535 29.1696C12.8183 29.3013 12.8865 29.4365 12.9592 29.566C13.0378 29.7073 13.1086 29.8337 13.1838 29.9554C13.5006 30.4885 13.8458 30.9779 14.2136 31.416C14.3112 31.5363 14.4047 31.6406 14.5017 31.7456C14.5942 31.8541 14.6773 31.9431 14.7642 32.0317C15.1028 32.383 15.4595 32.7044 15.8266 32.9895C15.9163 33.0621 16.0006 33.1258 16.0894 33.1845C16.1023 33.1937 16.115 33.2026 16.1273 33.213C16.1952 33.2692 16.2663 33.3215 16.3415 33.3667C16.4716 33.4589 16.5699 33.5233 16.6681 33.5835C16.7913 33.6625 16.9091 33.7315 17.0276 33.8002C17.1957 33.9002 17.3416 33.9803 17.492 34.0515C17.528 34.0687 17.5626 34.0853 17.5962 34.1014C17.6941 34.1484 17.7839 34.1915 17.8758 34.2344C18.0268 34.3052 18.1857 34.3711 18.3452 34.428C18.6046 34.5269 18.8699 34.6163 19.1435 34.6964C19.1498 34.6983 19.156 34.7002 19.1621 34.7021C19.195 34.7123 19.2242 34.7213 19.256 34.7273C19.5589 34.8099 19.8264 34.8661 20.0874 34.9035L20.1163 34.9083C20.2595 34.9318 20.3957 34.9542 20.5318 34.9676C20.5483 34.9693 20.5638 34.9718 20.5789 34.9754C20.6863 34.9882 20.7637 34.9971 20.8414 35.0017C20.8992 35.0074 20.9403 35.0117 20.9814 35.0117C21.3683 35.0391 21.6839 35.0348 22.002 35.0224C22.3385 35.006 22.6187 34.98 22.8809 34.9394C22.8859 34.9388 22.8907 34.9383 22.8952 34.9378C22.9116 34.9359 22.925 34.9344 22.9387 34.9305C22.9545 34.9259 22.9728 34.9224 22.9892 34.9192C24.6091 34.6697 26.1751 33.9603 27.5179 32.8684Z" fill="#D3662D"/>
</svg>
